<svg width="512" height="512" viewBox="0 0 512 512" xmlns="http://www.w3.org/2000/svg">
  <!-- Navy background -->
  <rect width="512" height="512" fill="#1e3a5f"/>
  
  <!-- TV screen -->
  <rect x="116" y="80" width="280" height="180" rx="8" fill="white"/>
  <rect x="132" y="96" width="248" height="148" fill="#1e3a5f"/>
  
  <!-- TV stand -->
  <rect x="226" y="270" width="60" height="35" fill="white"/>
  <rect x="166" y="305" width="180" height="16" rx="4" fill="white"/>
  
  <!-- Play button inside screen -->
  <path d="M236 150 L236 200 L276 175 Z" fill="white"/>
  
  <!-- Thai temple spire - top right corner -->
  <path d="M425 120 L425 90 L420 90 L420 80 L425 70 L430 80 L430 90 L425 90 Z" fill="#F5A623"/>
  <path d="M415 90 L435 90 L432 100 L418 100 Z" fill="#F5A623"/>
  <path d="M418 100 L432 100 L430 110 L420 110 Z" fill="#F5A623"/>
  
  <!-- Text with proper spacing -->
  <text x="256" y="420" font-family="Arial, sans-serif" font-size="48" font-weight="bold" fill="white" text-anchor="middle">THAI</text>
</svg>
