<svg width="512" height="512" viewBox="0 0 512 512" xmlns="http://www.w3.org/2000/svg">
  <!-- Navy background -->
  <rect width="512" height="512" fill="#1e3a5f"/>
  
  <!-- TV screen -->
  <rect x="116" y="80" width="280" height="180" rx="8" fill="white"/>
  <rect x="132" y="96" width="248" height="148" fill="#1e3a5f"/>
  
  <!-- TV stand -->
  <rect x="226" y="270" width="60" height="35" fill="white"/>
  <rect x="166" y="305" width="180" height="16" rx="4" fill="white"/>
  
  <!-- Play button inside screen -->
  <path d="M236 150 L236 200 L276 175 Z" fill="white"/>
  
  <!-- Pakistani crescent and star - top right corner -->
  <path d="M410 60 Q430 60 430 80 Q430 100 410 100 Q420 90 420 80 Q420 70 410 60 Z" fill="#F5A623"/>
  <path d="M440 75 L445 85 L455 85 L447 91 L450 101 L440 95 L430 101 L433 91 L425 85 L435 85 Z" fill="#F5A623"/>
  
  <!-- Text with proper spacing -->
  <text x="256" y="420" font-family="Arial, sans-serif" font-size="48" font-weight="bold" fill="white" text-anchor="middle">PAKISTANI TV</text>
</svg>
